# xmcd
#
# Track frame offsets:
# 150
# 13761
# 23554
# 33242
# 46778
# 57519
# 69295
# 81910
# 94411
# 107641
#
# Disc length: 1555 seconds
#
#
# Revision: 0
# Processed by: cddbd v1.4PL0 Copyright (c) Steve Scherf et al.
# Submitted via: FreeRIP 2.00 
#
DISCID=7606110a
DTITLE=Moe Bandy - One Of A Kind
DYEAR=1979
DGENRE=Country
TTITLE0=I Cheated Me Right Out Of You
TTITLE1=One Of A Kind
TTITLE2=Gonna Honky Tonk Right Out On You
TTITLE3=The Bitter With The Sweet
TTITLE4=We Start The Fire (But Somebody Else Puts It Out)
TTITLE5=In The Middle Of Losing You
TTITLE6=Tell Her It's Over
TTITLE7=Sweet Kentucky Woman
TTITLE8=Honky Tonk Merry Go Round
TTITLE9=Man Of Means
EXTD=Columbia 36228
EXTT0=
EXTT1=
EXTT2=
EXTT3=
EXTT4=
EXTT5=
EXTT6=
EXTT7=
EXTT8=
EXTT9=
PLAYORDER=
